<svg width="15" height="16" viewBox="0 0 15 16" fill="none" xmlns="http://www.w3.org/2000/svg">
<path d="M15 7.49942V14.9994C15 15.1652 14.9342 15.3242 14.8169 15.4414C14.6997 15.5586 14.5408 15.6244 14.375 15.6244H10C9.83424 15.6244 9.67527 15.5586 9.55806 15.4414C9.44085 15.3242 9.375 15.1652 9.375 14.9994V10.9369C9.375 10.854 9.34208 10.7746 9.28347 10.716C9.22487 10.6573 9.14538 10.6244 9.0625 10.6244H5.9375C5.85462 10.6244 5.77513 10.6573 5.71653 10.716C5.65792 10.7746 5.625 10.854 5.625 10.9369V14.9994C5.625 15.1652 5.55915 15.3242 5.44194 15.4414C5.32473 15.5586 5.16576 15.6244 5 15.6244H0.625C0.45924 15.6244 0.300269 15.5586 0.183058 15.4414C0.0658481 15.3242 0 15.1652 0 14.9994V7.49942C0.000153664 7.16796 0.13195 6.85013 0.366406 6.61583L6.61641 0.365827C6.8508 0.131584 7.16862 0 7.5 0C7.83138 0 8.1492 0.131584 8.38359 0.365827L14.6336 6.61583C14.868 6.85013 14.9998 7.16796 15 7.49942Z" fill="#0A2757" fill-opacity="0.5"/>
</svg>
