<svg width="17" height="18" viewBox="0 0 17 18" fill="none" xmlns="http://www.w3.org/2000/svg">
<path d="M15.6 3.91646L8.725 0.154738C8.54131 0.0532399 8.33487 0 8.125 0C7.91513 0 7.70869 0.0532399 7.525 0.154738L0.65 3.91802C0.453663 4.02544 0.289768 4.18361 0.175431 4.37601C0.0610939 4.5684 0.000508014 4.78797 0 5.01177V12.4836C0.000508014 12.7074 0.0610939 12.927 0.175431 13.1194C0.289768 13.3118 0.453663 13.47 0.65 13.5774L7.525 17.3407C7.70869 17.4422 7.91513 17.4954 8.125 17.4954C8.33487 17.4954 8.54131 17.4422 8.725 17.3407L15.6 13.5774C15.7963 13.47 15.9602 13.3118 16.0746 13.1194C16.1889 12.927 16.2495 12.7074 16.25 12.4836V5.01255C16.2499 4.78835 16.1895 4.5683 16.0752 4.37545C15.9608 4.18261 15.7967 4.02407 15.6 3.91646ZM8.125 1.24849L14.4023 4.68599L12.0758 5.95864L5.79844 2.52114L8.125 1.24849ZM8.125 8.12349L1.84766 4.68599L4.49687 3.23521L10.7742 6.67271L8.125 8.12349ZM15 12.4868L8.75 15.9079V9.20396L11.25 7.83599V10.6235C11.25 10.7892 11.3158 10.9482 11.4331 11.0654C11.5503 11.1826 11.7092 11.2485 11.875 11.2485C12.0408 11.2485 12.1997 11.1826 12.3169 11.0654C12.4342 10.9482 12.5 10.7892 12.5 10.6235V7.15161L15 5.78364V12.4836V12.4868Z" fill="#0A2757" fill-opacity="0.5"/>
</svg>
