<svg width="28" height="28" viewBox="0 0 28 28" fill="none" xmlns="http://www.w3.org/2000/svg">
<rect width="28" height="28" fill="#0A2757" fill-opacity="0.1"/>
<path d="M23.7509 13.876C23.7509 14.1744 23.6324 14.4605 23.4214 14.6715C23.2104 14.8825 22.9243 15.001 22.6259 15.001H8.84464L13.6746 19.8301C13.886 20.0414 14.0047 20.3281 14.0047 20.627C14.0047 20.9258 13.886 21.2125 13.6746 21.4238C13.4633 21.6352 13.1766 21.7539 12.8778 21.7539C12.5789 21.7539 12.2922 21.6352 12.0809 21.4238L5.33089 14.6738C5.22601 14.5693 5.14279 14.4451 5.08601 14.3084C5.02923 14.1716 5 14.025 5 13.877C5 13.7289 5.02923 13.5823 5.08601 13.4455C5.14279 13.3088 5.22601 13.1846 5.33089 13.0801L12.0809 6.33008C12.1855 6.22543 12.3098 6.14242 12.4465 6.08578C12.5832 6.02915 12.7298 6 12.8778 6C13.0258 6 13.1723 6.02915 13.309 6.08578C13.4458 6.14242 13.57 6.22543 13.6746 6.33008C13.7793 6.43472 13.8623 6.55896 13.9189 6.69569C13.9756 6.83241 14.0047 6.97896 14.0047 7.12695C14.0047 7.27494 13.9756 7.42149 13.9189 7.55822C13.8623 7.69495 13.7793 7.81918 13.6746 7.92383L8.84464 12.751H22.6259C22.9243 12.751 23.2104 12.8695 23.4214 13.0805C23.6324 13.2915 23.7509 13.5776 23.7509 13.876Z" fill="black"/>
</svg>
