<svg width="33" height="32" viewBox="0 0 33 32" fill="none" xmlns="http://www.w3.org/2000/svg">
<path d="M16.5 28C23.1274 28 28.5 22.6274 28.5 16C28.5 9.37258 23.1274 4 16.5 4C9.87258 4 4.5 9.37258 4.5 16C4.5 22.6274 9.87258 28 16.5 28Z" stroke="white" stroke-width="2"/>
<path d="M16.5007 24.6663C16.8688 24.6663 17.1673 24.3679 17.1673 23.9997C17.1673 23.6315 16.8688 23.333 16.5007 23.333C16.1325 23.333 15.834 23.6315 15.834 23.9997C15.834 24.3679 16.1325 24.6663 16.5007 24.6663Z" fill="white" stroke="white"/>
<path d="M16.5 21.3333V19.4413C16.5 18.1826 17.3053 17.0653 18.5 16.6666C19.0823 16.4724 19.5888 16.1 19.9478 15.602C20.3067 15.104 20.4999 14.5058 20.5 13.8919V13.2079C20.5 11.0666 18.7667 9.33325 16.6253 9.33325H16.5C15.4391 9.33325 14.4217 9.75468 13.6716 10.5048C12.9214 11.255 12.5 12.2724 12.5 13.3333" stroke="white" stroke-width="2"/>
</svg>
