<?xml version="1.0" ?><svg id="Layer_1" style="enable-background:new 0 0 512 512;" version="1.1" viewBox="0 0 512 512" xml:space="preserve" xmlns="http://www.w3.org/2000/svg" xmlns:xlink="http://www.w3.org/1999/xlink"><style type="text/css">
	.st0{fill:#ED1C24;}
</style><g><path class="st0" d="M209.1,354.4c2.3-2.4,3.4-5.5,3.4-9.2c0-3.7-1.1-6.8-3.4-9.3c-2.3-2.5-5.7-3.7-10.2-3.7h-15.8V358h15.8   C203.4,358,206.8,356.8,209.1,354.4z"/><path class="st0" d="M458,118.2L346.5,8.4C345,6.9,342.9,6,340.7,6H135c-31.1,0-56.3,26.6-56.3,59.4v219.2H51.3v148.6h27.4v13.4   c0,32.7,25.3,59.4,56.3,59.4h269.4c31.1,0,56.3-26.6,56.3-59.4V124.7C460.7,122.3,459.8,119.9,458,118.2z M337.9,24.4l97,95.6   h-52.8c-24.4,0-44.2-19.5-44.2-43.4V24.4z M443.7,446.6c0,22.9-17.6,41.5-39.3,41.5H135c-21.7,0-39.3-18.6-39.3-41.5v-13.4h187   c36.5,0,66-33.3,66-74.3s-29.6-74.3-66-74.3h-187V65.4c0-22.9,17.6-41.5,39.3-41.5h185.9v52.7c0,33.8,27.4,61.3,61.2,61.3h61.6   V446.6z M106.6,374.8l0.1-0.3h11.8c0,4.1,1,7.2,3,9.2c2,2,4.7,3,8.3,3c3.2,0,5.8-1.2,7.8-3.6c2-2.4,3-5.6,3-9.6v-51h12.1v51   c0,7-2.1,12.6-6.4,16.7c-4.3,4.1-9.8,6.2-16.5,6.2c-7.2,0-12.9-1.8-17.1-5.5C108.5,387.2,106.4,381.9,106.6,374.8z M171,395.4   v-72.9h27.9c8,0,14.3,2.1,18.9,6.2c4.6,4.2,6.8,9.6,6.8,16.4c0,6.8-2.3,12.3-6.8,16.4c-4.6,4.1-10.9,6.2-18.9,6.2h-15.8v27.6H171z    M254.2,381c3.2,3.8,7.4,5.7,12.6,5.7c3.9,0,7-0.4,9.3-1.3c2.3-0.9,4-2,5.2-3.2v-15.1h-15.3V358h27.4v27.5c-2,2.8-5.2,5.4-9.6,7.6   c-4.4,2.2-10.1,3.3-17,3.3c-8.6,0-15.7-2.8-21.3-8.3c-5.6-5.6-8.3-12.7-8.3-21.6v-15.2c0-8.8,2.7-16,8.1-21.6   c5.4-5.6,12.3-8.3,20.7-8.3c8.5,0,15.1,2.1,19.8,6.4c4.7,4.3,7,9.8,6.9,16.7l-0.2,0.3H281c0-4.1-1.3-7.4-3.8-9.9   c-2.6-2.5-6.2-3.8-11-3.8c-5,0-9.1,1.9-12.2,5.7c-3.1,3.8-4.6,8.6-4.6,14.4v15.3C249.3,372.4,250.9,377.2,254.2,381z"/></g></svg>