<?xml version="1.0" ?><svg id="Flat" viewBox="0 0 512 512" xmlns="http://www.w3.org/2000/svg"><path d="M392,488H120a48,48,0,0,1-48-48V72a48,48,0,0,1,48-48H344l96,96V440A48,48,0,0,1,392,488Z" style="fill:#cfd2fc"/><path d="M72,360H440a0,0,0,0,1,0,0v80a48,48,0,0,1-48,48H120a48,48,0,0,1-48-48V360A0,0,0,0,1,72,360Z" style="fill:#5153ff"/><path d="M440,120H392a48,48,0,0,1-48-48V24Z" style="fill:#8690fa"/><path d="M376,176H200a8,8,0,0,1,0-16H376a8,8,0,0,1,0,16Z" style="fill:#8690fa"/><path d="M280,208H136a8,8,0,0,1,0-16H280a8,8,0,0,1,0,16Z" style="fill:#8690fa"/><path d="M376,240H248a8,8,0,0,1,0-16H376a8,8,0,0,1,0,16Z" style="fill:#8690fa"/><path d="M320,272H136a8,8,0,0,1,0-16H320a8,8,0,0,1,0,16Z" style="fill:#8690fa"/><path d="M168,176H136a8,8,0,0,1,0-16h32a8,8,0,0,1,0,16Z" style="fill:#8690fa"/><path d="M376,208H312a8,8,0,0,1,0-16h64a8,8,0,0,1,0,16Z" style="fill:#8690fa"/><path d="M216,240H136a8,8,0,0,1,0-16h80a8,8,0,0,1,0,16Z" style="fill:#8690fa"/><path d="M376,272H352a8,8,0,0,1,0-16h24a8,8,0,0,1,0,16Z" style="fill:#8690fa"/><path d="M184,304H136a8,8,0,0,1,0-16h48a8,8,0,0,1,0,16Z" style="fill:#8690fa"/><path d="M216,144H136a8,8,0,0,1,0-16h80a8,8,0,0,1,0,16Z" style="fill:#8690fa"/><path d="M296,304H216a8,8,0,0,1,0-16h80a8,8,0,0,1,0,16Z" style="fill:#8690fa"/><path d="M376,304H328a8,8,0,0,1,0-16h48a8,8,0,0,1,0,16Z" style="fill:#8690fa"/><path d="M168,384a8,8,0,0,0-8,8v64a8,8,0,0,0,8,8,40,40,0,0,0,0-80Zm8,62.629V401.371a24,24,0,0,1,0,45.258Z" style="fill:#fff"/><path d="M256,384c-17.645,0-32,17.944-32,40s14.355,40,32,40,32-17.944,32-40S273.645,384,256,384Zm0,64c-8.673,0-16-10.991-16-24s7.327-24,16-24,16,10.991,16,24S264.673,448,256,448Z" style="fill:#fff"/><path d="M336,400a10.708,10.708,0,0,1,4.59,1.058,8,8,0,1,0,6.82-14.474A26.581,26.581,0,0,0,336,384c-17.645,0-32,17.944-32,40s14.355,40,32,40a26.6,26.6,0,0,0,11.411-2.584,8,8,0,0,0-6.822-14.473A10.71,10.71,0,0,1,336,448c-8.673,0-16-10.991-16-24S327.327,400,336,400Z" style="fill:#fff"/></svg>