<svg width="20" height="20" viewBox="0 0 20 20" fill="none" xmlns="http://www.w3.org/2000/svg">
<path d="M16.25 2.5H3.75C3.41848 2.5 3.10054 2.6317 2.86612 2.86612C2.6317 3.10054 2.5 3.41848 2.5 3.75V16.25C2.5 16.5815 2.6317 16.8995 2.86612 17.1339C3.10054 17.3683 3.41848 17.5 3.75 17.5H16.25C16.5815 17.5 16.8995 17.3683 17.1339 17.1339C17.3683 16.8995 17.5 16.5815 17.5 16.25V3.75C17.5 3.41848 17.3683 3.10054 17.1339 2.86612C16.8995 2.6317 16.5815 2.5 16.25 2.5ZM5.625 14.375H5C4.83424 14.375 4.67527 14.3092 4.55806 14.1919C4.44085 14.0747 4.375 13.9158 4.375 13.75C4.375 13.5842 4.44085 13.4253 4.55806 13.3081C4.67527 13.1908 4.83424 13.125 5 13.125H5.625C5.79076 13.125 5.94973 13.1908 6.06694 13.3081C6.18415 13.4253 6.25 13.5842 6.25 13.75C6.25 13.9158 6.18415 14.0747 6.06694 14.1919C5.94973 14.3092 5.79076 14.375 5.625 14.375ZM5.625 10.625H5C4.83424 10.625 4.67527 10.5592 4.55806 10.4419C4.44085 10.3247 4.375 10.1658 4.375 10C4.375 9.83424 4.44085 9.67527 4.55806 9.55806C4.67527 9.44085 4.83424 9.375 5 9.375H5.625C5.79076 9.375 5.94973 9.44085 6.06694 9.55806C6.18415 9.67527 6.25 9.83424 6.25 10C6.25 10.1658 6.18415 10.3247 6.06694 10.4419C5.94973 10.5592 5.79076 10.625 5.625 10.625ZM5.625 6.875H5C4.83424 6.875 4.67527 6.80915 4.55806 6.69194C4.44085 6.57473 4.375 6.41576 4.375 6.25C4.375 6.08424 4.44085 5.92527 4.55806 5.80806C4.67527 5.69085 4.83424 5.625 5 5.625H5.625C5.79076 5.625 5.94973 5.69085 6.06694 5.80806C6.18415 5.92527 6.25 6.08424 6.25 6.25C6.25 6.41576 6.18415 6.57473 6.06694 6.69194C5.94973 6.80915 5.79076 6.875 5.625 6.875ZM15 14.375H8.125C7.95924 14.375 7.80027 14.3092 7.68306 14.1919C7.56585 14.0747 7.5 13.9158 7.5 13.75C7.5 13.5842 7.56585 13.4253 7.68306 13.3081C7.80027 13.1908 7.95924 13.125 8.125 13.125H15C15.1658 13.125 15.3247 13.1908 15.4419 13.3081C15.5592 13.4253 15.625 13.5842 15.625 13.75C15.625 13.9158 15.5592 14.0747 15.4419 14.1919C15.3247 14.3092 15.1658 14.375 15 14.375ZM15 10.625H8.125C7.95924 10.625 7.80027 10.5592 7.68306 10.4419C7.56585 10.3247 7.5 10.1658 7.5 10C7.5 9.83424 7.56585 9.67527 7.68306 9.55806C7.80027 9.44085 7.95924 9.375 8.125 9.375H15C15.1658 9.375 15.3247 9.44085 15.4419 9.55806C15.5592 9.67527 15.625 9.83424 15.625 10C15.625 10.1658 15.5592 10.3247 15.4419 10.4419C15.3247 10.5592 15.1658 10.625 15 10.625ZM15 6.875H8.125C7.95924 6.875 7.80027 6.80915 7.68306 6.69194C7.56585 6.57473 7.5 6.41576 7.5 6.25C7.5 6.08424 7.56585 5.92527 7.68306 5.80806C7.80027 5.69085 7.95924 5.625 8.125 5.625H15C15.1658 5.625 15.3247 5.69085 15.4419 5.80806C15.5592 5.92527 15.625 6.08424 15.625 6.25C15.625 6.41576 15.5592 6.57473 15.4419 6.69194C15.3247 6.80915 15.1658 6.875 15 6.875Z" fill="#0A2757"/>
</svg>
