<?xml version="1.0" ?><svg data-name="Layer 1" id="Layer_1" viewBox="0 0 130 130" xmlns="http://www.w3.org/2000/svg"><defs><style>.cls-1{fill:#e4574d;}.cls-2{fill:#cf4c44;}.cls-3{fill:#e5e6e8;}.cls-4,.cls-5{fill:#cdd1d4;}.cls-5{opacity:0.35;}.cls-6{fill:#fff;}</style></defs><title/><polygon class="cls-1" points="11.74 62.72 11.74 73.89 23.02 73.89 22.67 65.72 11.74 62.72"/><path class="cls-2" d="M24.7,55.77H18.5a6.76,6.76,0,1,0,0,13.51h6.2a.18.18,0,0,0,.18-.17V55.94A.18.18,0,0,0,24.7,55.77Z"/><path class="cls-3" d="M118.3,34V118a11,11,0,0,1-11,11H33.17a11,11,0,0,1-11-11V12a11,11,0,0,1,11-11H85.35Z"/><rect class="cls-4" height="39.93" width="67.24" x="22.17" y="72.59"/><path class="cls-5" d="M85.35,26.29a11,11,0,0,0,11,11h22V34L85.35,4.32Z"/><path class="cls-1" d="M89.41,109.21H18.22a6.53,6.53,0,0,1-6.53-6.53l.05-33.4H89.41Z"/><path class="cls-4" d="M85.35,23a11,11,0,0,0,11,11h22l-33-33Z"/><path class="cls-6" d="M27.91,98.3V80.2h5.86a21.49,21.49,0,0,1,4.35.27,4.75,4.75,0,0,1,2.6,1.77,5.6,5.6,0,0,1,1.05,3.52,6,6,0,0,1-.6,2.81,5,5,0,0,1-1.54,1.78,5.29,5.29,0,0,1-1.9.86,21,21,0,0,1-3.79.26H31.56V98.3Zm3.65-15v5.13h2a9.5,9.5,0,0,0,2.89-.28,2.31,2.31,0,0,0,1.14-.89,2.58,2.58,0,0,0-.16-3,2.61,2.61,0,0,0-1.47-.8,18.17,18.17,0,0,0-2.63-.12Z"/><path class="cls-6" d="M44.81,98.3V80.2h3.56l7.41,12.08V80.2h3.39V98.3H55.5L48.21,86.49V98.3Z"/><path class="cls-6" d="M71.46,91.64v-3h7.88V95.8a10,10,0,0,1-3.33,2,12.26,12.26,0,0,1-4.42.85,10,10,0,0,1-5-1.19A7.64,7.64,0,0,1,63.47,94a11,11,0,0,1-1.06-4.82,10.41,10.41,0,0,1,1.18-5,8,8,0,0,1,3.47-3.37,9.39,9.39,0,0,1,4.34-.9,8.65,8.65,0,0,1,5.26,1.41,6.35,6.35,0,0,1,2.44,3.91l-3.63.68A3.86,3.86,0,0,0,74,83.78,4.36,4.36,0,0,0,71.4,83a5,5,0,0,0-3.81,1.52A6.36,6.36,0,0,0,66.17,89a7.09,7.09,0,0,0,1.43,4.83,4.78,4.78,0,0,0,3.76,1.61,6.31,6.31,0,0,0,2.3-.45,7.77,7.77,0,0,0,2-1.09v-2.3Z"/></svg>