<svg width="16" height="15" viewBox="0 0 16 15" fill="none" xmlns="http://www.w3.org/2000/svg">
<path d="M15.625 7.502C15.625 8.9669 15.1961 10.3997 14.3911 11.6236C13.5861 12.8475 12.4403 13.8089 11.0951 14.389C9.75002 14.9691 8.26444 15.1426 6.82183 14.8881C5.37921 14.6336 4.04272 13.9621 2.97734 12.9567C2.91763 12.9003 2.86962 12.8326 2.83605 12.7576C2.80248 12.6827 2.78401 12.6018 2.78168 12.5197C2.77936 12.4376 2.79324 12.3558 2.82252 12.279C2.8518 12.2023 2.89592 12.132 2.95234 12.0723C3.0663 11.9517 3.2235 11.8813 3.38935 11.8767C3.47148 11.8743 3.55325 11.8882 3.63001 11.9175C3.70677 11.9468 3.77701 11.9909 3.83672 12.0473C4.73027 12.8903 5.85242 13.4513 7.06296 13.6601C8.27351 13.869 9.51876 13.7165 10.6431 13.2217C11.7675 12.7269 12.7211 11.9117 13.3848 10.878C14.0486 9.84431 14.3929 8.63794 14.375 7.40964C14.357 6.18134 13.9774 4.98558 13.2837 3.97176C12.59 2.95794 11.613 2.17102 10.4746 1.70934C9.33621 1.24765 8.08703 1.13167 6.88312 1.37589C5.6792 1.62011 4.57395 2.21369 3.70547 3.08247C3.42969 3.36137 3.17031 3.63559 2.91797 3.90825L4.19219 5.18481C4.2797 5.27222 4.3393 5.38363 4.36346 5.50493C4.38761 5.62624 4.37523 5.75198 4.32789 5.86624C4.28054 5.98051 4.20036 6.07816 4.09749 6.14682C3.99462 6.21549 3.87369 6.2521 3.75 6.252H0.625C0.45924 6.252 0.300269 6.18615 0.183058 6.06894C0.0658482 5.95173 1.93625e-07 5.79276 1.93625e-07 5.627V2.502C-9.71422e-05 2.37831 0.0365057 2.25738 0.105175 2.15451C0.173844 2.05164 0.271492 1.97146 0.385756 1.92411C0.500021 1.87677 0.625764 1.86439 0.747067 1.88854C0.86837 1.9127 0.979778 1.9723 1.06719 2.05981L2.03125 3.02544C2.28281 2.75278 2.54219 2.47856 2.81719 2.20122C3.86569 1.15093 5.20223 0.435312 6.65762 0.144952C8.11301 -0.145409 9.62183 0.00253819 10.9931 0.570068C12.3644 1.1376 13.5364 2.09919 14.361 3.33314C15.1855 4.5671 15.6254 6.01793 15.625 7.502ZM8.125 3.127C7.95924 3.127 7.80027 3.19285 7.68306 3.31006C7.56585 3.42727 7.5 3.58624 7.5 3.752V7.502C7.49997 7.6099 7.52787 7.71597 7.58099 7.80989C7.63411 7.9038 7.71063 7.98237 7.80312 8.03794L10.9281 9.91294C10.9985 9.95521 11.0765 9.9832 11.1577 9.99532C11.2389 10.0074 11.3217 10.0034 11.4014 9.98357C11.481 9.96369 11.556 9.92832 11.622 9.87947C11.688 9.83062 11.7437 9.76925 11.7859 9.69887C11.8282 9.62849 11.8562 9.55048 11.8683 9.46928C11.8804 9.38808 11.8764 9.30529 11.8566 9.22563C11.8367 9.14598 11.8013 9.07102 11.7525 9.00503C11.7036 8.93905 11.6423 8.88333 11.5719 8.84106L8.75 7.14809V3.752C8.75 3.58624 8.68415 3.42727 8.56694 3.31006C8.44973 3.19285 8.29076 3.127 8.125 3.127Z" fill="#0A2757" fill-opacity="0.5"/>
</svg>
