<svg width="14" height="18" viewBox="0 0 14 18" fill="none" xmlns="http://www.w3.org/2000/svg">
<path d="M12.625 1.49989H9.7922C9.441 1.1067 9.0108 0.79212 8.5296 0.57673C8.0484 0.36134 7.5272 0.25 7 0.25C6.47282 0.25 5.95158 0.36134 5.47041 0.57673C4.98924 0.79212 4.55899 1.1067 4.20781 1.49989H1.375C1.04348 1.49989 0.72554 1.63158 0.49112 1.866C0.2567 2.10042 0.125 2.41837 0.125 2.74989V15.8749C0.125 16.2064 0.2567 16.5243 0.49112 16.7588C0.72554 16.9932 1.04348 17.1249 1.375 17.1249H12.625C12.9565 17.1249 13.2745 16.9932 13.5089 16.7588C13.7433 16.5243 13.875 16.2064 13.875 15.8749V2.74989C13.875 2.41837 13.7433 2.10042 13.5089 1.866C13.2745 1.63158 12.9565 1.49989 12.625 1.49989ZM7 1.49989C7.663 1.49989 8.2989 1.76328 8.7678 2.23212C9.2366 2.70096 9.5 3.33685 9.5 3.99989H4.5C4.5 3.33685 4.76339 2.70096 5.23223 2.23212C5.70107 1.76328 6.33696 1.49989 7 1.49989ZM9.5 11.4999H4.5C4.33424 11.4999 4.17527 11.434 4.05806 11.3168C3.94085 11.1996 3.875 11.0406 3.875 10.8749C3.875 10.7091 3.94085 10.5502 4.05806 10.4329C4.17527 10.3157 4.33424 10.2499 4.5 10.2499H9.5C9.6658 10.2499 9.8247 10.3157 9.9419 10.4329C10.0592 10.5502 10.125 10.7091 10.125 10.8749C10.125 11.0406 10.0592 11.1996 9.9419 11.3168C9.8247 11.434 9.6658 11.4999 9.5 11.4999ZM9.5 8.99989H4.5C4.33424 8.99989 4.17527 8.93404 4.05806 8.81683C3.94085 8.69962 3.875 8.54065 3.875 8.37489C3.875 8.20913 3.94085 8.05016 4.05806 7.93295C4.17527 7.81573 4.33424 7.74989 4.5 7.74989H9.5C9.6658 7.74989 9.8247 7.81573 9.9419 7.93295C10.0592 8.05016 10.125 8.20913 10.125 8.37489C10.125 8.54065 10.0592 8.69962 9.9419 8.81683C9.8247 8.93404 9.6658 8.99989 9.5 8.99989Z" fill="#0A2757" fill-opacity="0.5"/>
</svg>
