<svg width="20" height="20" viewBox="0 0 20 20" fill="none" xmlns="http://www.w3.org/2000/svg">
<path d="M18.0417 17.1874C17.9869 17.2825 17.908 17.3614 17.8129 17.4162C17.7179 17.4711 17.6101 17.5 17.5003 17.4999H2.50034C2.39068 17.4998 2.28298 17.4709 2.18806 17.416C2.09314 17.3611 2.01433 17.2821 1.95955 17.1872C1.90477 17.0922 1.87595 16.9844 1.87598 16.8748C1.876 16.7651 1.90488 16.6574 1.95971 16.5624C3.14955 14.5054 4.98315 13.0304 7.12299 12.3312C6.06453 11.7011 5.24217 10.7409 4.7822 9.59821C4.32223 8.45548 4.25009 7.19337 4.57685 6.00568C4.90361 4.81798 5.61121 3.77039 6.59098 3.02378C7.57075 2.27716 8.76851 1.8728 10.0003 1.8728C11.2322 1.8728 12.4299 2.27716 13.4097 3.02378C14.3895 3.77039 15.0971 4.81798 15.4238 6.00568C15.7506 7.19337 15.6784 8.45548 15.2185 9.59821C14.7585 10.7409 13.9361 11.7011 12.8777 12.3312C15.0175 13.0304 16.8511 14.5054 18.041 16.5624C18.0959 16.6574 18.1249 16.7651 18.1251 16.8748C18.1252 16.9845 18.0965 17.0923 18.0417 17.1874Z" fill="#0A2757"/>
</svg>
