<?xml version="1.0" ?><!DOCTYPE svg  PUBLIC '-//W3C//DTD SVG 1.1//EN'  'http://www.w3.org/Graphics/SVG/1.1/DTD/svg11.dtd'><svg enable-background="new 0 0 502 502" height="502px" id="Layer_1" version="1.1" viewBox="0 0 502 502" width="502px" xml:space="preserve" xmlns="http://www.w3.org/2000/svg" xmlns:xlink="http://www.w3.org/1999/xlink"><g><path d="M192.35,408.387c-3.373-4.462-1.572-8.08,4.021-8.08h27.497c1.657,0,3.001-1.343,3.001-3V338.2   c0-5.592,4.534-10.126,10.128-10.126h55.354c5.594,0,10.127,4.534,10.127,10.126v59.106c0,1.657,1.345,3,3.001,3h27.506   c5.593,0,7.393,3.618,4.02,8.08l-66.219,89.267c-3.373,4.462-8.842,4.462-12.214,0L192.35,408.387z" fill="#A80C08"/><path d="M348.034,1L109.43,1.002c-4.475,0-8.091,3.626-8.075,8.101l0.002,148.826   c0.008,2.237,1.827,4.05,4.064,4.05h12.697c2.237,0,4.052-1.813,4.052-4.05V24.298c0-1.657,1.344-3,3-3h206.058   c1.657,0,3.001,1.343,3.002,3l0.019,61.345c-0.035,4.475,3.566,8.101,8.041,8.101h61.895c1.656,0,3,1.343,3,3V427.29   c0,1.657-1.344,2.999-3,2.998l-65.59-0.049c-1.662-0.006-3.803,1.074-4.785,2.413l-11.334,15.347   c-0.98,1.339-0.432,2.429,1.229,2.433l95.537,0.155c4.475,0,8.106-3.627,8.112-8.101l0.174-362.046   c0.004-2.237-1.276-5.332-2.857-6.914L354.852,3.865C353.271,2.283,350.271,1,348.034,1z" fill="#A80C08"/><path d="M118.118,327.474h-12.697c-2.237,0-4.059,1.813-4.068,4.051l0.012,110.962   c-0.02,4.474,3.591,8.101,8.065,8.101l95.694-0.155c1.661-0.004,2.211-1.094,1.229-2.433l-11.334-15.347   c-0.981-1.339-3.123-2.419-4.784-2.413l-65.065,0.049c-1.656,0.001-3-1.341-3-2.998v-95.766   C122.17,329.287,120.355,327.474,118.118,327.474z" fill="#A80C08"/><g><path d="M141.918,225.259c-1.132-0.184-3.91-0.408-10.652-0.408h-3.695v12.959h4.719    c7.738,0,10.304-0.615,11.052-0.849c1.354-0.496,2.357-1.244,3.12-2.229c0.716-0.981,1.099-2.098,1.099-3.46    c0-1.701-0.512-2.961-1.485-3.963C144.99,226.192,143.637,225.547,141.918,225.259z" fill="#A80C08"/><path d="M211.467,224.949c-1.109,0-2.046,0.041-2.827,0.1v39.24c0.459,0.005,0.908,0.005,1.299,0.005l0.255,0.001    c5.601,0,9.944-1.626,12.909-4.835c3.239-3.502,4.881-8.88,4.881-15.984c0.041-6.357-1.521-11.162-4.643-14.305    C220.559,226.37,216.563,224.949,211.467,224.949z" fill="#A80C08"/><path d="M343.941,179.094H82.543c-4.494,0-8.099,3.589-8.07,8.116l0.063,115.039    c0.026,4.528,3.677,8.108,8.175,8.108h261.231c4.469,0,8.124-3.58,8.124-8.108V187.21    C352.065,182.683,348.41,179.094,343.941,179.094z M168.535,243.759c-2.03,3.458-4.654,6.254-7.865,8.237    c-3.091,1.973-6.306,3.254-9.568,3.941c-4.083,0.744-9.72,1.06-17.153,1.06h-6.378v26.807h-24.566v-78.157h30.178    c10.034,0,16.494,0.43,19.775,1.218c5.278,1.223,9.752,4,13.313,8.188c3.56,4.189,5.329,9.572,5.329,15.996    C171.599,235.983,170.578,240.267,168.535,243.759z M239.102,274.179c-7.389,6.688-18.256,10.067-32.322,10.067    c-6.339,0-12.532-0.364-17.533-1.08l-3.24-0.463v-75.436l3.123-0.547c5.584-0.977,13.257-1.516,20.81-1.516    c12.881,0,21.767,2.579,28.809,8.363c8.032,6.495,12.289,16.664,12.289,29.386C251.036,259.675,244.547,269.164,239.102,274.179z     M323.597,225.589h-33.979v10.324h30.313v18.061h-30.313v29.829h-23.545v-78.157h57.524V225.589z" fill="#A80C08"/></g></g></svg>