<svg width="20" height="20" viewBox="0 0 20 20" fill="none" xmlns="http://www.w3.org/2000/svg">
<path d="M18.75 7.5V13.75C18.75 13.9158 18.6842 14.0747 18.5669 14.1919C18.4497 14.3092 18.2908 14.375 18.125 14.375H15.625V16.875C15.625 17.0408 15.5592 17.1997 15.4419 17.3169C15.3247 17.4342 15.1658 17.5 15 17.5H5C4.83424 17.5 4.67527 17.4342 4.55806 17.3169C4.44085 17.1997 4.375 17.0408 4.375 16.875V14.375H1.875C1.70924 14.375 1.55027 14.3092 1.43306 14.1919C1.31585 14.0747 1.25 13.9158 1.25 13.75V7.5C1.25 6.46641 2.1375 5.625 3.22891 5.625H4.375V3.125C4.375 2.95924 4.44085 2.80027 4.55806 2.68306C4.67527 2.56585 4.83424 2.5 5 2.5H15C15.1658 2.5 15.3247 2.56585 15.4419 2.68306C15.5592 2.80027 15.625 2.95924 15.625 3.125V5.625H16.7711C17.8625 5.625 18.75 6.46641 18.75 7.5ZM5.625 5.625H14.375V3.75H5.625V5.625ZM14.375 12.5H5.625V16.25H14.375V12.5ZM15.625 9.0625C15.625 8.87708 15.57 8.69582 15.467 8.54165C15.364 8.38748 15.2176 8.26732 15.0463 8.19636C14.875 8.12541 14.6865 8.10684 14.5046 8.14301C14.3227 8.17919 14.1557 8.26848 14.0246 8.39959C13.8935 8.5307 13.8042 8.69775 13.768 8.8796C13.7318 9.06146 13.7504 9.24996 13.8214 9.42127C13.8923 9.59257 14.0125 9.73899 14.1667 9.842C14.3208 9.94502 14.5021 10 14.6875 10C14.9361 10 15.1746 9.90123 15.3504 9.72541C15.5262 9.5496 15.625 9.31114 15.625 9.0625Z" fill="white"/>
</svg>
