<svg width="21" height="21" viewBox="0 0 21 21" fill="none" xmlns="http://www.w3.org/2000/svg">
<path d="M17.8307 6.01844L14.3393 2.35328C14.2232 2.23137 14.0854 2.13466 13.9337 2.06869C13.782 2.00271 13.6195 1.96875 13.4553 1.96875C13.2911 1.96875 13.1285 2.00271 12.9769 2.06869C12.8252 2.13466 12.6874 2.23137 12.5713 2.35328L2.9377 12.4686C2.82112 12.59 2.7287 12.7345 2.66579 12.8938C2.60289 13.0531 2.57077 13.2239 2.5713 13.3963V17.0623C2.5713 17.4104 2.70299 17.7442 2.93741 17.9904C3.17183 18.2365 3.48977 18.3748 3.8213 18.3748H16.9463C17.1121 18.3748 17.271 18.3057 17.3882 18.1826C17.5054 18.0595 17.5713 17.8926 17.5713 17.7186C17.5713 17.5445 17.5054 17.3776 17.3882 17.2545C17.271 17.1314 17.1121 17.0623 16.9463 17.0623H9.08067L17.8307 7.8748C17.9468 7.75292 18.0389 7.60822 18.1017 7.44896C18.1645 7.2897 18.1969 7.119 18.1969 6.94662C18.1969 6.77423 18.1645 6.60354 18.1017 6.44428C18.0389 6.28502 17.9468 6.14032 17.8307 6.01844ZM6.26817 15.4217L13.326 8.01097L14.6299 9.37926L7.5713 16.7908L6.26817 15.4217ZM12.44 7.08238L5.3838 14.4939L4.07989 13.1248L11.1385 5.7141L12.44 7.08238ZM3.8213 14.7088L6.0627 17.0623H3.8213V14.7088Z" fill="black"/>
</svg>
